<svg width="19" height="20" viewBox="0 0 19 20" fill="none" xmlns="http://www.w3.org/2000/svg">
<g clip-path="url(#clip0_22_800)">
<path fill-rule="evenodd" clip-rule="evenodd" d="M9.46402 2.90199C5.54388 2.90199 2.36598 6.07989 2.36598 10C2.36598 13.9202 5.54388 17.0981 9.46402 17.0981C13.3842 17.0981 16.5621 13.9202 16.5621 10C16.5621 6.07989 13.3842 2.90199 9.46402 2.90199ZM0.788635 10C0.788635 5.20875 4.67274 1.32465 9.46402 1.32465C14.2553 1.32465 18.1394 5.20875 18.1394 10C18.1394 14.7913 14.2553 18.6754 9.46402 18.6754C4.67274 18.6754 0.788635 14.7913 0.788635 10Z" fill="#868686"/>
<path fill-rule="evenodd" clip-rule="evenodd" d="M9.46409 4.47931C9.89967 4.47931 10.2528 4.83241 10.2528 5.26798V9.51261L12.9715 10.872C13.3611 11.0668 13.519 11.5404 13.3242 11.93C13.1294 12.3196 12.6557 12.4775 12.2661 12.2827L9.11139 10.7054C8.84419 10.5718 8.67542 10.2988 8.67542 10V5.26798C8.67542 4.83241 9.0285 4.47931 9.46409 4.47931Z" fill="#868686"/>
</g>
<defs>
<clipPath id="clip0_22_800">
<rect width="18.9281" height="18.9281" fill="white" transform="translate(0 0.53595)"/>
</clipPath>
</defs>
</svg>
