<svg width="22" height="22" viewBox="0 0 22 22" fill="none" xmlns="http://www.w3.org/2000/svg">
<path fill-rule="evenodd" clip-rule="evenodd" d="M6.41669 7.33333C5.44422 7.33333 4.5116 7.71964 3.82396 8.40727C3.13633 9.09491 2.75002 10.0275 2.75002 11C2.75002 11.9725 3.13633 12.9051 3.82396 13.5927C4.5116 14.2804 5.44422 14.6667 6.41669 14.6667H8.25002C8.75628 14.6667 9.16669 15.0771 9.16669 15.5833C9.16669 16.0896 8.75628 16.5 8.25002 16.5H6.41669C4.958 16.5 3.55905 15.9206 2.5276 14.889C1.49615 13.8576 0.916687 12.4587 0.916687 11C0.916687 9.54131 1.49615 8.14236 2.5276 7.11091C3.55905 6.07946 4.958 5.5 6.41669 5.5H8.25002C8.75628 5.5 9.16669 5.91041 9.16669 6.41667C9.16669 6.92292 8.75628 7.33333 8.25002 7.33333H6.41669Z" fill="#6F7785"/>
<path fill-rule="evenodd" clip-rule="evenodd" d="M12.8333 6.41667C12.8333 5.91041 13.2437 5.5 13.75 5.5H15.5833C17.042 5.5 18.4409 6.07946 19.4724 7.11091C20.5039 8.14236 21.0833 9.54131 21.0833 11C21.0833 12.4587 20.5039 13.8576 19.4724 14.889C18.4409 15.9206 17.042 16.5 15.5833 16.5H13.75C13.2437 16.5 12.8333 16.0896 12.8333 15.5833C12.8333 15.0771 13.2437 14.6667 13.75 14.6667H15.5833C16.5558 14.6667 17.4884 14.2804 18.176 13.5927C18.8637 12.9051 19.25 11.9725 19.25 11C19.25 10.0275 18.8637 9.09491 18.176 8.40727C17.4884 7.71964 16.5558 7.33333 15.5833 7.33333H13.75C13.2437 7.33333 12.8333 6.92292 12.8333 6.41667Z" fill="#6F7785"/>
<path fill-rule="evenodd" clip-rule="evenodd" d="M6.41669 10.9999C6.41669 10.4936 6.8271 10.0833 7.33335 10.0833H14.6667C15.173 10.0833 15.5834 10.4936 15.5834 10.9999C15.5834 11.5062 15.173 11.9166 14.6667 11.9166H7.33335C6.8271 11.9166 6.41669 11.5062 6.41669 10.9999Z" fill="#6F7785"/>
</svg>
