<svg xmlns="http://www.w3.org/2000/svg" width="16" height="16" viewBox="0 0 16 16" fill="none">
    <path fill-rule="evenodd" clip-rule="evenodd" d="M8 2.00002C6.76233 2.00002 5.57534 2.49169 4.70017 3.36685C3.825 4.24203 3.33333 5.42901 3.33333 6.66669C3.33333 8.10622 4.14445 9.65782 5.19849 11.0427C6.21735 12.3814 7.38647 13.4654 8 13.9978C8.61353 13.4654 9.78267 12.3814 10.8015 11.0427C11.8555 9.65782 12.6667 8.10622 12.6667 6.66669C12.6667 5.42901 12.175 4.24203 11.2998 3.36685C10.4247 2.49169 9.23767 2.00002 8 2.00002ZM3.75736 2.42405C4.88258 1.29883 6.4087 0.666687 8 0.666687C9.59127 0.666687 11.1174 1.29883 12.2427 2.42405C13.3679 3.54927 14 5.07539 14 6.66669C14 8.55582 12.9648 10.4019 11.8625 11.8502C10.7447 13.3188 9.47313 14.4875 8.83633 15.0373C8.825 15.0471 8.81333 15.0565 8.80133 15.0655C8.57027 15.2392 8.28907 15.3332 8 15.3332C7.71093 15.3332 7.42973 15.2392 7.19867 15.0655C7.18667 15.0565 7.175 15.0471 7.16367 15.0373C6.52685 14.4875 5.25525 13.3188 4.13751 11.8502C3.03521 10.4019 2 8.55582 2 6.66669C2 5.07539 2.63214 3.54927 3.75736 2.42405Z" fill="#868686"/>
    <path fill-rule="evenodd" clip-rule="evenodd" d="M7.99998 5.33333C7.26358 5.33333 6.66665 5.93029 6.66665 6.66667C6.66665 7.40307 7.26358 8 7.99998 8C8.73638 8 9.33331 7.40307 9.33331 6.66667C9.33331 5.93029 8.73638 5.33333 7.99998 5.33333ZM5.33331 6.66667C5.33331 5.19391 6.52722 4 7.99998 4C9.47271 4 10.6666 5.19391 10.6666 6.66667C10.6666 8.1394 9.47271 9.33333 7.99998 9.33333C6.52722 9.33333 5.33331 8.1394 5.33331 6.66667Z" fill="#868686"/>
</svg>