<svg width="26" height="24" viewBox="0 0 26 24" fill="none" xmlns="http://www.w3.org/2000/svg">
<g clip-path="url(#clip0_22_420)">
<path fill-rule="evenodd" clip-rule="evenodd" d="M5.00006 12C5.00006 11.4477 5.46644 11 6.04173 11H20.6251C21.2004 11 21.6667 11.4477 21.6667 12C21.6667 12.5523 21.2004 13 20.6251 13H6.04173C5.46644 13 5.00006 12.5523 5.00006 12Z" fill="#1C1B1F"/>
<path fill-rule="evenodd" clip-rule="evenodd" d="M13.3334 4C13.9087 4 14.375 4.44772 14.375 5V19C14.375 19.5523 13.9087 20 13.3334 20C12.758 20 12.2917 19.5523 12.2917 19V5C12.2917 4.44772 12.758 4 13.3334 4Z" fill="#1C1B1F"/>
</g>
<defs>
<clipPath id="clip0_22_420">
<rect width="25" height="24" fill="white" transform="translate(0.833374)"/>
</clipPath>
</defs>
</svg>
