<svg width="26" height="24" viewBox="0 0 26 24" fill="none" xmlns="http://www.w3.org/2000/svg">
<g clip-path="url(#clip0_22_534)">
<path fill-rule="evenodd" clip-rule="evenodd" d="M6.19215 15.4645C7.1689 14.5268 8.49366 14 9.87499 14H16.125C17.5063 14 18.8311 14.5268 19.8078 15.4645C20.7846 16.4021 21.3333 17.6739 21.3333 19V21C21.3333 21.5523 20.867 22 20.2917 22C19.7163 22 19.25 21.5523 19.25 21V19C19.25 18.2044 18.9207 17.4413 18.3347 16.8787C17.7486 16.3161 16.9537 16 16.125 16H9.87499C9.04619 16 8.25133 16.3161 7.66528 16.8787C7.07923 17.4413 6.74999 18.2044 6.74999 19V21C6.74999 21.5523 6.28361 22 5.70832 22C5.13303 22 4.66666 21.5523 4.66666 21V19C4.66666 17.6739 5.21539 16.4021 6.19215 15.4645Z" fill="#1C1B1F"/>
<path fill-rule="evenodd" clip-rule="evenodd" d="M13 4C11.2741 4 9.87499 5.34315 9.87499 7C9.87499 8.65685 11.2741 10 13 10C14.7259 10 16.125 8.65685 16.125 7C16.125 5.34315 14.7259 4 13 4ZM7.79166 7C7.79166 4.23858 10.1235 2 13 2C15.8764 2 18.2083 4.23858 18.2083 7C18.2083 9.76142 15.8764 12 13 12C10.1235 12 7.79166 9.76142 7.79166 7Z" fill="#1C1B1F"/>
</g>
<defs>
<clipPath id="clip0_22_534">
<rect width="25" height="24" fill="white" transform="translate(0.5)"/>
</clipPath>
</defs>
</svg>
