<svg width="13" height="12" viewBox="0 0 13 12" fill="none" xmlns="http://www.w3.org/2000/svg">
<path fill-rule="evenodd" clip-rule="evenodd" d="M1.86703 3.07863C1.86703 2.80973 2.08503 2.59174 2.35393 2.59174H11.118C11.3869 2.59174 11.6049 2.80973 11.6049 3.07863C11.6049 3.34753 11.3869 3.56552 11.118 3.56552H2.35393C2.08503 3.56552 1.86703 3.34753 1.86703 3.07863Z" fill="#6F7785"/>
<path fill-rule="evenodd" clip-rule="evenodd" d="M3.81461 5.99995C3.81461 5.73104 4.0326 5.51306 4.3015 5.51306H9.17041C9.43932 5.51306 9.6573 5.73104 9.6573 5.99995C9.6573 6.26886 9.43932 6.48684 9.17041 6.48684H4.3015C4.0326 6.48684 3.81461 6.26886 3.81461 5.99995Z" fill="#6F7785"/>
<path fill-rule="evenodd" clip-rule="evenodd" d="M5.27527 8.92134C5.27527 8.65243 5.49326 8.43445 5.76216 8.43445H7.70973C7.97864 8.43445 8.19662 8.65243 8.19662 8.92134C8.19662 9.19025 7.97864 9.40823 7.70973 9.40823H5.76216C5.49326 9.40823 5.27527 9.19025 5.27527 8.92134Z" fill="#6F7785"/>
</svg>
