<svg width="24" height="24" viewBox="0 0 24 24" fill="none" xmlns="http://www.w3.org/2000/svg">
<path fill-rule="evenodd" clip-rule="evenodd" d="M16.7072 1.29289C17.0977 1.68342 17.0977 2.31658 16.7072 2.70711L14.4111 5.00321C14.0466 5.37673 13.8425 5.87799 13.8425 6.4C13.8425 6.92201 14.0466 7.42326 14.4111 7.79678L16.2033 9.589C16.5768 9.95349 17.0781 10.1576 17.6001 10.1576C18.1221 10.1576 18.6234 9.95349 18.9969 9.589L21.293 7.29289C21.6835 6.90237 22.3167 6.90237 22.7072 7.29289C23.0977 7.68342 23.0977 8.31658 22.7072 8.70711L20.4072 11.0071C20.4057 11.0086 20.4042 11.0102 20.4026 11.0117L20.4001 11.0141C19.6524 11.7471 18.6471 12.1576 17.6001 12.1576C16.5531 12.1576 15.5478 11.7471 14.8001 11.0141C14.7977 11.0118 14.7954 11.0095 14.793 11.0071L12.993 9.20711C12.9906 9.20475 12.9883 9.20238 12.986 9.2C12.2531 8.45228 11.8425 7.44701 11.8425 6.4C11.8425 5.35299 12.2531 4.34772 12.986 3.6C12.9883 3.59762 12.9906 3.59525 12.993 3.59289L15.293 1.29289C15.6835 0.90237 16.3167 0.90237 16.7072 1.29289Z" fill="black"/>
<path fill-rule="evenodd" clip-rule="evenodd" d="M2.60031 2.58576C2.99195 2.20203 3.61956 2.20523 4.00727 2.59294L22.7073 21.2929C23.0978 21.6835 23.0978 22.3166 22.7073 22.7072C22.3167 23.0977 21.6836 23.0977 21.2931 22.7072L15.0002 16.4143L14.1073 17.3072C14.0916 17.3228 14.0754 17.338 14.0587 17.3526C12.909 18.3586 11.0075 18.4216 9.89306 17.3072L2.59647 10.0106C2.10413 9.52718 1.7129 8.95062 1.44559 8.31449C1.17759 7.67671 1.03955 6.99185 1.03955 6.30005C1.03955 5.60824 1.17759 4.92339 1.44559 4.28561C1.71359 3.64782 2.10616 3.06993 2.60031 2.58576ZM13.5859 15L3.4036 4.8177C3.36223 4.89683 3.32413 4.9778 3.28942 5.06039C3.1245 5.45288 3.03955 5.87432 3.03955 6.30005C3.03955 6.72578 3.1245 7.14722 3.28942 7.53971C3.45435 7.93219 3.69593 8.28782 4.00002 8.58576C4.00245 8.58814 4.00486 8.59054 4.00727 8.59294L11.3073 15.8929C11.5884 16.174 12.2697 16.2395 12.7205 15.8655L13.5859 15Z" fill="black"/>
<path fill-rule="evenodd" clip-rule="evenodd" d="M9.21275 14.7985C9.60019 15.1921 9.5952 15.8252 9.20161 16.2127L2.80161 22.5127C2.40803 22.9001 1.77488 22.8951 1.38745 22.5015C1.00001 22.1079 1.00499 21.4748 1.39858 21.0873L7.79858 14.7873C8.19217 14.3999 8.82531 14.4049 9.21275 14.7985Z" fill="black"/>
<path fill-rule="evenodd" clip-rule="evenodd" d="M19.7071 4.29289C20.0976 4.68342 20.0976 5.31658 19.7071 5.70711L12.7071 12.7071C12.3166 13.0976 11.6834 13.0976 11.2929 12.7071C10.9024 12.3166 10.9024 11.6834 11.2929 11.2929L18.2929 4.29289C18.6834 3.90237 19.3166 3.90237 19.7071 4.29289Z" fill="black"/>
</svg>
