<svg width="24" height="24" viewBox="0 0 24 24" fill="none" xmlns="http://www.w3.org/2000/svg">
<g clip-path="url(#clip0_50_1158)">
<mask id="mask0_50_1158" style="mask-type:luminance" maskUnits="userSpaceOnUse" x="0" y="0" width="24" height="24">
<path d="M24 0H0V24H24V0Z" fill="white"/>
</mask>
<g mask="url(#mask0_50_1158)">
<path fill-rule="evenodd" clip-rule="evenodd" d="M8.89287 8.89275C9.28339 8.50222 9.91656 8.50222 10.3071 8.89275L15.1071 13.6928C15.4976 14.0833 15.4976 14.7165 15.1071 15.107C14.7166 15.4975 14.0834 15.4975 13.6929 15.107L8.89287 10.307C8.50234 9.91644 8.50234 9.28327 8.89287 8.89275Z" fill="black"/>
<path fill-rule="evenodd" clip-rule="evenodd" d="M19.0105 11.6462C18.7452 11.6462 18.4907 11.7516 18.3031 11.9392L11.9391 18.3032C11.7515 18.4908 11.6461 18.7453 11.6461 19.0106C11.6461 19.2759 11.7515 19.5304 11.9391 19.718C12.1267 19.9056 12.3812 20.011 12.6465 20.011C12.9118 20.011 13.1663 19.9056 13.3539 19.718L15.1207 17.9502C15.5111 17.5597 16.1444 17.5594 16.535 17.9499C16.9256 18.3403 16.9257 18.9734 16.5353 19.364C16.3477 19.5516 16.2424 19.8061 16.2425 20.0713C16.2425 20.3365 16.3479 20.5909 16.5355 20.7784C16.7231 20.9659 16.9775 21.0712 17.2427 21.0712C17.5079 21.0711 17.7623 20.9657 17.9498 20.7781L20.7779 17.95C20.9655 17.7625 21.071 17.508 21.0711 17.2428C21.0711 16.9776 20.9658 16.7232 20.7783 16.5356C20.5908 16.348 20.3364 16.2426 20.0712 16.2426C19.806 16.2425 19.5516 16.3478 19.364 16.5354C18.9734 16.9258 18.3402 16.9257 17.9498 16.5351C17.5593 16.1445 17.5595 15.5113 17.95 15.1209L19.7179 13.354C19.9055 13.1664 20.0109 12.9119 20.0109 12.6466C20.0109 12.3813 19.9055 12.1268 19.7179 11.9392C19.5303 11.7516 19.2758 11.6462 19.0105 11.6462ZM21.3479 14.5279C21.775 13.9973 22.0109 13.3341 22.0109 12.6466C22.0109 11.8509 21.6948 11.0877 21.1321 10.525C20.5694 9.96235 19.8063 9.64624 19.0105 9.64624C18.2148 9.64624 17.4516 9.96235 16.8889 10.525L10.5249 16.889C9.96223 17.4517 9.64612 18.2149 9.64612 19.0106C9.64612 19.8064 9.96223 20.5695 10.5249 21.1322C11.0876 21.6949 11.8508 22.011 12.6465 22.011C13.334 22.011 13.9972 21.7751 14.5278 21.348C14.674 21.6589 14.8739 21.9453 15.1215 22.1929C15.6843 22.7554 16.4474 23.0713 17.2431 23.0712C18.0387 23.071 18.8017 22.7548 19.3643 22.1921L22.192 19.3644C22.7547 18.8018 23.0709 18.0388 23.0711 17.2432C23.0712 16.4475 22.7553 15.6844 22.1928 15.1216C21.9452 14.874 21.6588 14.6741 21.3479 14.5279Z" fill="black"/>
<path fill-rule="evenodd" clip-rule="evenodd" d="M19.3929 19.3928C19.7834 19.0022 20.4166 19.0022 20.8071 19.3928L22.2071 20.7928C22.5976 21.1833 22.5976 21.8165 22.2071 22.207C21.8166 22.5975 21.1834 22.5975 20.7929 22.207L19.3929 20.807C19.0023 20.4165 19.0023 19.7833 19.3929 19.3928Z" fill="black"/>
<path fill-rule="evenodd" clip-rule="evenodd" d="M1.79289 1.79289C2.18342 1.40237 2.81658 1.40237 3.20711 1.79289L4.60711 3.19289C4.99763 3.58342 4.99763 4.21658 4.60711 4.60711C4.21658 4.99763 3.58342 4.99763 3.19289 4.60711L1.79289 3.20711C1.40237 2.81658 1.40237 2.18342 1.79289 1.79289Z" fill="black"/>
<path fill-rule="evenodd" clip-rule="evenodd" d="M7.14005 3.00501C7.01871 2.95478 6.88866 2.92893 6.75733 2.92896C6.4921 2.929 6.23775 3.03441 6.05024 3.22199L3.22211 6.05011C3.03453 6.23762 2.929 6.4921 2.92896 6.75733C2.92893 6.88866 2.95478 7.01871 3.00501 7.14005C3.05525 7.26139 3.12889 7.37165 3.22174 7.46453C3.40925 7.6521 3.6636 7.75751 3.92883 7.75756C4.06016 7.75758 4.19021 7.73174 4.31155 7.6815C4.43277 7.63131 4.54294 7.55776 4.63576 7.46504C4.63568 7.46513 4.63585 7.46495 4.63576 7.46504C5.02638 7.07464 5.65986 7.07446 6.05028 7.46506C6.4407 7.85566 6.44057 8.4888 6.04999 8.87924C6.04996 8.87926 6.05002 8.87922 6.04999 8.87924L4.28211 10.6461C4.0945 10.8337 3.9891 11.0882 3.9891 11.3535C3.9891 11.6188 4.0945 11.8733 4.28211 12.0609C4.46973 12.2485 4.72418 12.3539 4.98951 12.3539C5.25483 12.3539 5.50929 12.2485 5.6969 12.0609L12.0609 5.6969C12.2485 5.50929 12.3539 5.25483 12.3539 4.98951C12.3539 4.72418 12.2485 4.46973 12.0609 4.28211C11.8733 4.0945 11.6188 3.9891 11.3535 3.9891C11.0882 3.9891 10.8337 4.0945 10.6461 4.28211L8.87931 6.04991C8.87929 6.04994 8.87933 6.04988 8.87931 6.04991C8.48887 6.44049 7.85566 6.4407 7.46506 6.05028C7.07446 5.65986 7.0743 5.02672 7.4647 4.6361C7.46461 4.63619 7.46479 4.63602 7.4647 4.6361C7.55742 4.54328 7.63131 4.43277 7.6815 4.31155C7.73174 4.19021 7.75758 4.06016 7.75756 3.92883C7.75753 3.7975 7.73164 3.66746 7.68137 3.54614C7.63109 3.42482 7.5574 3.31458 7.46453 3.22174C7.37165 3.12889 7.26139 3.05525 7.14005 3.00501ZM9.47226 2.65212C9.3248 2.33862 9.124 2.0527 8.87849 1.80727C8.59986 1.52874 8.2691 1.30782 7.90509 1.15712C7.54108 1.00641 7.15095 0.928885 6.75698 0.928955C5.96137 0.929096 5.19841 1.24526 4.6359 1.8079C4.63586 1.80794 4.63595 1.80786 4.6359 1.8079L1.80802 4.63577M9.47226 2.65212C10.0028 2.22506 10.666 1.9891 11.3535 1.9891C12.1493 1.9891 12.9124 2.30521 13.4751 2.8679C14.0378 3.43058 14.3539 4.19375 14.3539 4.98951C14.3539 5.78526 14.0378 6.54843 13.4751 7.11111L7.11111 13.4751C6.54843 14.0378 5.78526 14.3539 4.98951 14.3539C4.19375 14.3539 3.43058 14.0378 2.8679 13.4751C2.30521 12.9124 1.9891 12.1493 1.9891 11.3535C1.9891 10.666 2.22506 10.0028 2.65212 9.47226C2.34121 9.32603 2.05483 9.12613 1.80727 8.87849C1.52874 8.59986 1.30782 8.2691 1.15712 7.90509C1.00641 7.54108 0.928885 7.15095 0.928955 6.75698C0.929096 5.96137 1.24538 5.19828 1.80802 4.63577" fill="black"/>
</g>
</g>
<defs>
<clipPath id="clip0_50_1158">
<rect width="24" height="24" fill="white"/>
</clipPath>
</defs>
</svg>
