<svg width="22" height="20" viewBox="0 0 22 20" fill="none" xmlns="http://www.w3.org/2000/svg">
<path fill-rule="evenodd" clip-rule="evenodd" d="M1.90381 1.90381C3.12279 0.68482 4.77609 0 6.5 0C7.48018 0 8.37318 0.14018 9.2468 0.52068C9.8597 0.78762 10.4321 1.15937 11 1.63935C11.5679 1.15937 12.1403 0.78762 12.7532 0.52068C13.6268 0.14018 14.5198 0 15.5 0C17.2239 0 18.8772 0.68482 20.0962 1.90381C21.3152 3.12279 22 4.77609 22 6.5C22 9.2418 20.1907 11.2531 18.7036 12.7106L11.7071 19.7071C11.3166 20.0976 10.6834 20.0976 10.2929 19.7071L3.29883 12.713C1.7944 11.258 0 9.2494 0 6.5C0 4.77609 0.68482 3.12279 1.90381 1.90381ZM6.5 2C5.30653 2 4.16193 2.47411 3.31802 3.31802C2.47411 4.16193 2 5.30653 2 6.5C2 8.3469 3.2007 9.8365 4.69502 11.281C4.69908 11.2849 4.70311 11.2889 4.70711 11.2929L11 17.5858L17.2929 11.2929C17.2953 11.2905 17.2977 11.2881 17.3001 11.2857C18.7923 9.8236 20 8.3359 20 6.5C20 5.30653 19.5259 4.16193 18.682 3.31802C17.8381 2.47411 16.6935 2 15.5 2C14.7202 2 14.1132 2.10982 13.5518 2.35432C12.984 2.60163 12.4001 3.0141 11.7071 3.70711C11.3166 4.09763 10.6834 4.09763 10.2929 3.70711C9.5999 3.0141 9.016 2.60163 8.44819 2.35432C7.88682 2.10982 7.27982 2 6.5 2Z" fill="black"/>
</svg>
