<svg width="26" height="24" viewBox="0 0 26 24" fill="none" xmlns="http://www.w3.org/2000/svg">
<g clip-path="url(#clip0_15_867)">
<path fill-rule="evenodd" clip-rule="evenodd" d="M9.44357 11.5858C9.83427 11.2107 10.3642 11 10.9167 11H15.0834C15.6359 11 16.1658 11.2107 16.5565 11.5858C16.9472 11.9609 17.1667 12.4696 17.1667 13V21C17.1667 21.5523 16.7004 22 16.125 22C15.5497 22 15.0834 21.5523 15.0834 21V13H10.9167V21C10.9167 21.5523 10.4503 22 9.87504 22C9.29975 22 8.83337 21.5523 8.83337 21V13C8.83337 12.4696 9.05286 11.9609 9.44357 11.5858Z" fill="#6F7785"/>
<path fill-rule="evenodd" clip-rule="evenodd" d="M12.3299 3.23489L5.04143 9.23128C5.03961 9.23277 5.0378 9.23425 5.03598 9.23573C4.92025 9.32963 4.82725 9.44663 4.76347 9.57859C4.6997 9.71054 4.66668 9.85426 4.66671 9.99973V19C4.66671 19.2652 4.77646 19.5195 4.9718 19.7071C5.16716 19.8946 5.4321 20 5.70837 20H20.2917C20.568 20 20.833 19.8946 21.0283 19.7071C21.2236 19.5195 21.3334 19.2652 21.3334 19V9.99973C21.3334 9.85426 21.3004 9.71054 21.2366 9.57859C21.1729 9.44663 21.0798 9.32963 20.9641 9.23573C20.9623 9.23425 20.9605 9.23277 20.9587 9.23128L13.6701 3.23489C13.4825 3.08351 13.2452 3.00049 13 3.00049C12.7548 3.00049 12.5175 3.08351 12.3299 3.23489ZM10.9829 1.70921C11.5469 1.25157 12.2615 1.00049 13 1.00049C13.7386 1.00049 14.4532 1.25157 15.0172 1.70921C15.019 1.71068 15.0209 1.71217 15.0226 1.71366L22.3119 7.7107C22.6577 7.99197 22.9357 8.34209 23.1264 8.73678C23.3177 9.13257 23.4168 9.56365 23.4167 9.99997C23.4167 9.99987 23.4167 10 23.4167 9.99997V19C23.4167 19.7956 23.0874 20.5587 22.5014 21.1213C21.9154 21.6839 21.1206 22 20.2917 22H5.70837C4.87957 22 4.08472 21.6839 3.49867 21.1213C2.91261 20.5587 2.58337 19.7956 2.58337 19V10.0002C2.58337 10.0002 2.58337 10.0001 2.58337 10.0002C2.5833 9.56388 2.68236 9.13257 2.87367 8.73678C3.06445 8.34207 3.34238 7.99193 3.68818 7.71065L10.9774 1.71366C10.9792 1.71217 10.9811 1.71068 10.9829 1.70921Z" fill="#6F7785"/>
</g>
<defs>
<clipPath id="clip0_15_867">
<rect width="25" height="24" fill="white" transform="translate(0.5)"/>
</clipPath>
</defs>
</svg> 