<svg width="26" height="24" viewBox="0 0 26 24" fill="none" xmlns="http://www.w3.org/2000/svg">
<g clip-path="url(#clip0_15_873)">
<path fill-rule="evenodd" clip-rule="evenodd" d="M12.6669 3.59213L10.7006 7.41707C10.4673 7.87061 10.1226 8.26291 9.6962 8.56021C9.26985 8.85751 8.77464 9.05089 8.25318 9.12372L3.85244 9.74127L7.03503 12.7156C7.41297 13.0689 7.69582 13.5053 7.85896 13.9869C8.02208 14.4685 8.06073 14.981 7.97156 15.4801L7.22113 19.6825L11.1544 17.6968C11.6207 17.4617 12.1396 17.3389 12.6662 17.3389C13.1929 17.3389 13.7118 17.4617 14.1781 17.6968L18.1133 19.6831L17.362 15.4793C17.2731 14.9804 17.3119 14.4676 17.475 13.9864C17.6381 13.5051 17.9205 13.0692 18.2981 12.716L21.4795 9.7419L17.078 9.12354C16.5572 9.05015 16.0627 8.85654 15.637 8.55933C15.2113 8.26211 14.8671 7.87017 14.6339 7.41714L12.6669 3.59213ZM5.5818 14.1487C5.58184 14.1487 5.58176 14.1486 5.5818 14.1487L1.69308 10.5144C1.69243 10.5138 1.69177 10.5132 1.69112 10.5126C1.47743 10.3138 1.32598 10.0615 1.25394 9.78428C1.18168 9.50622 1.19222 9.21426 1.28437 8.94167C1.3765 8.66908 1.54654 8.42681 1.77512 8.24247C2.00291 8.05874 2.27972 7.93991 2.57419 7.89939L7.95325 7.14455C8.14066 7.11838 8.31863 7.04888 8.47185 6.94204C8.62507 6.8352 8.74896 6.69421 8.83283 6.53121L11.2384 1.85154C11.3702 1.59595 11.5737 1.3808 11.8261 1.23038C12.0785 1.07995 12.3697 1.00024 12.6668 1.00024C12.9638 1.00024 13.255 1.07995 13.5074 1.23038C13.7598 1.3808 13.9633 1.59595 14.0951 1.85154L16.5017 6.53114C16.5855 6.69404 16.7093 6.83498 16.8624 6.94186C17.0154 7.04873 17.1932 7.11835 17.3805 7.14474L22.7599 7.90047C22.7603 7.90053 22.7607 7.90059 22.7611 7.90064C22.761 7.90063 22.7611 7.90065 22.7611 7.90064C23.0549 7.94177 23.3311 8.06091 23.5582 8.24458C23.7857 8.42854 23.955 8.66994 24.047 8.94147C24.1389 9.21299 24.15 9.5038 24.0787 9.78103C24.0075 10.0583 23.8569 10.3108 23.6439 10.5101L19.7521 14.1483C19.6163 14.2753 19.5148 14.4321 19.4561 14.6051C19.3975 14.7781 19.3835 14.9622 19.4154 15.1415L20.3332 20.2762C20.3333 20.2772 20.3335 20.2782 20.3337 20.2792C20.3849 20.5607 20.3529 20.8504 20.2414 21.1154C20.1296 21.3813 19.9421 21.6117 19.7003 21.7802C19.4585 21.9488 19.1724 22.0487 18.8744 22.0686C18.5775 22.0885 18.2807 22.0281 18.0178 21.8944C18.0168 21.8939 18.0157 21.8933 18.0147 21.8928L13.2096 19.4675C13.042 19.383 12.8555 19.3389 12.6662 19.3389C12.477 19.3389 12.2905 19.383 12.1229 19.4675L7.31663 21.8939C7.31606 21.8942 7.3155 21.8945 7.31495 21.8948C7.05174 22.0282 6.75487 22.0881 6.45796 22.0679C6.16042 22.0476 5.87478 21.9475 5.63354 21.7791C5.39231 21.6107 5.20515 21.3806 5.09335 21.1151C4.9819 20.8504 4.94981 20.5611 5.00072 20.2798C5.00088 20.279 5.00102 20.2782 5.00118 20.2773L5.91821 15.1421C5.95026 14.9627 5.93638 14.7785 5.87774 14.6054C5.81914 14.4324 5.71757 14.2756 5.5818 14.1487Z" fill="#6F7785"/>
</g>
<defs>
<clipPath id="clip0_15_873">
<rect width="25" height="24" fill="white" transform="translate(0.166626)"/>
</clipPath>
</defs>
</svg>
